<svg width="260" height="54" viewBox="0 0 260 54" fill="none" xmlns="http://www.w3.org/2000/svg">
<g clip-path="url(#clip0_4085_7640)">
<path d="M15.262 19.3282V27.1013H34.1506V38.6162H15.262V53.108H0V7.83398H36.8058V19.3282H15.262Z" fill="#FA541C"/>
<path d="M55.7785 17.7158H41.1641V53.1081H55.7785V17.7158Z" fill="#FA541C"/>
<path d="M57.2731 7.17356C57.2731 9.42692 56.4744 11.2668 54.8769 12.7346C53.2795 14.1611 51.164 14.8846 48.4872 14.8846C45.8104 14.8846 43.6733 14.1611 42.0758 12.7346C40.4784 11.3288 39.6797 9.55096 39.6797 7.44231C39.6797 5.33365 40.4784 3.55577 42.0758 2.12933C43.6733 0.702885 45.8104 0 48.4872 0C51.164 0 53.2795 0.661539 54.8769 2.00529C56.4744 3.34904 57.2731 5.0649 57.2731 7.17356Z" fill="#FA541C"/>
<path d="M88.3326 51.8679C87.2101 52.5294 85.8501 53.0049 84.2527 53.2943C82.6984 53.6044 81.0578 53.7491 79.3308 53.7491C74.4738 53.7491 70.6745 52.5914 67.9545 50.2554C65.2345 47.878 63.8745 44.2602 63.8745 39.3814V30.3265H59.0391V19.6592H63.8745V9.75684H78.4889V19.6592H85.7422V30.3265H78.4889V39.2573C78.4889 40.3323 78.7696 41.1799 79.3308 41.7794C79.9353 42.3789 80.6692 42.689 81.5327 42.689C82.7848 42.689 83.8857 42.3583 84.8355 41.7174L88.3326 51.8679Z" fill="#FA541C"/>
<path d="M92.4531 53.108V7.83398H107.715V41.283H128.158V53.1287H92.4531V53.108Z" fill="#FA541C"/>
<path d="M162.51 21.1517C159.186 18.4435 154.501 17.0791 148.414 17.0791C145.651 17.0791 142.823 17.4305 139.93 18.1128C137.059 18.795 134.576 19.7873 132.504 21.0897L137.167 30.7233C138.333 29.8551 139.714 29.1935 141.355 28.718C142.995 28.2012 144.614 27.9531 146.212 27.9531C148.586 27.9531 150.292 28.4079 151.328 29.2969C152.148 29.9998 152.666 30.9301 152.839 32.0878H146.989C143.319 32.0878 140.275 32.5012 137.879 33.3075C135.505 34.1344 133.735 35.3334 132.569 36.9459C131.403 38.5378 130.82 40.481 130.82 42.7551C130.82 44.781 131.317 46.6416 132.31 48.3161C133.303 49.9493 134.771 51.2724 136.714 52.2647C138.656 53.257 141.053 53.7531 143.945 53.7531C147.011 53.7531 149.45 53.1123 151.263 51.8099C152.429 50.9829 153.336 49.8873 153.983 48.5022V53.1123H167.561V34.093C167.561 28.1805 165.878 23.8805 162.51 21.1517ZM151.069 44.1815C150.249 44.6983 149.342 44.9464 148.349 44.9464C147.27 44.9464 146.406 44.6983 145.759 44.1815C145.154 43.6233 144.852 42.9204 144.852 42.1142C144.852 41.1219 145.197 40.3777 145.888 39.9022C146.622 39.3853 147.766 39.1373 149.32 39.1373H152.947V41.5974C152.558 42.7551 151.932 43.6233 151.069 44.1815Z" fill="#FA541C"/>
<path d="M194.718 29.4194C194.481 29.378 194.243 29.3573 193.984 29.3573C192.991 29.3573 192.063 29.6054 191.2 30.0809C191.027 30.1636 190.854 30.2876 190.703 30.391C191.07 29.44 191.977 28.7578 193.035 28.7578C193.682 28.7578 194.287 29.0059 194.718 29.4194Z" fill="#FA541C"/>
<path d="M210.809 23.8805C209.557 21.5445 207.83 19.8286 205.628 18.7536C203.448 17.6373 200.987 17.0791 198.267 17.0791C195.375 17.0791 192.741 17.7406 190.366 19.0844C189.352 19.6632 188.424 20.3868 187.603 21.2344V17.72H173.68V53.1123H188.316C187.964 53.1123 189.276 53.1123 189.751 53.1123H196.071C196.848 53.1123 198.369 53.1123 198.138 53.1123H212.752V32.9354C212.752 29.2142 212.105 26.1959 210.809 23.8805ZM200.318 48.3781C200.318 48.5022 200.318 48.6262 200.296 48.7503H185.401C185.401 48.6262 185.401 48.5022 185.401 48.3781V32.2945C185.401 31.1575 185.898 30.0825 186.761 29.2969L189.913 26.444C191.575 24.9349 194.187 24.9349 195.85 26.444L199.001 29.2969C199.865 30.0825 200.34 31.1575 200.34 32.2945V48.3781H200.318Z" fill="#FA541C"/>
<path d="M244.429 5.10449V20.1752C243.997 19.7617 243.544 19.3896 243.069 19.0795C241.083 17.7357 238.535 17.0742 235.427 17.0742C232.318 17.0742 229.534 17.7978 226.9 19.2655C224.31 20.7333 222.237 22.8627 220.683 25.6122C219.129 28.3204 218.352 31.5867 218.352 35.3699C218.352 39.153 219.129 42.4607 220.683 45.2103C222.237 47.9184 224.31 50.0478 226.9 51.5569C229.534 53.0247 232.383 53.7482 235.427 53.7482C238.708 53.7482 241.32 53.1074 243.263 51.805C243.954 51.3502 244.58 50.8127 245.141 50.1925V53.1074H259.043V5.10449H244.429ZM243.911 39.2564C243.392 40.2901 242.702 41.0756 241.838 41.5925C240.975 42.1093 240.003 42.3574 238.924 42.3574C237.845 42.3574 236.873 42.1093 236.01 41.5925C235.146 41.0756 234.455 40.2901 233.959 39.2564C233.441 38.1814 233.182 36.879 233.182 35.3699C233.182 33.8607 233.441 32.5583 233.959 31.566C234.455 30.5324 235.146 29.7468 236.01 29.23C236.873 28.7131 237.845 28.4651 238.924 28.4651C240.003 28.4651 240.975 28.7131 241.838 29.23C242.702 29.7468 243.392 30.5324 243.911 31.566C244.429 32.5583 244.688 33.8194 244.688 35.3699C244.688 36.9204 244.429 38.1814 243.911 39.2564Z" fill="#FA541C"/>
<path d="M194.713 29.4194C194.281 29.0059 193.677 28.7578 193.029 28.7578C191.972 28.7578 191.065 29.44 190.698 30.391C190.612 30.6597 190.547 30.9492 190.547 31.2593C190.547 32.6237 191.669 33.7607 193.029 33.7607C194.389 33.7607 195.533 32.6237 195.533 31.2593C195.533 30.5357 195.21 29.8742 194.713 29.4194Z" fill="#EDEDEE" stroke="#FA541C"/>
<path d="M195.533 31.2593C195.533 32.6237 194.411 33.7607 193.029 33.7607C191.648 33.7607 190.547 32.6237 190.547 31.2593C190.547 30.9492 190.612 30.6597 190.698 30.391C191.065 29.44 191.972 28.7578 193.029 28.7578C193.677 28.7578 194.281 29.0059 194.713 29.4194C195.21 29.8742 195.533 30.5357 195.533 31.2593Z" fill="#FA541C"/>
</g>
<defs>
<clipPath id="clip0_4085_7640">
<rect width="259.044" height="53.75" fill="white"/>
</clipPath>
</defs>
</svg>
